<svg xmlns="http://www.w3.org/2000/svg" xmlns:xlink="http://www.w3.org/1999/xlink" version="1.1" x="0px" y="0px" viewBox="0 0 100 100" style="enable-background:new 0 0 100 100;" xml:space="preserve"><g fill="#cea07e"><path d="M89.11,47.68c-0.45,1.02-0.65,2.92-1.29,3.78c-0.24-0.47-0.44-0.82-0.6-1.18c-0.65-1.45-0.86-2.88,0.18-4.27   c0.48-0.64,0.89-1.33,1.35-1.98c0.49-0.7,0.82-1.45,0.89-2.18c-0.84-2.57-2.35-4.53-4.36-6.13c-0.03-0.02-0.06-0.05-0.09-0.08   c-1.34-0.99-2.55-2.2-4.18-2.73c-0.88-0.29-1.69-0.7-2.52-1.08c-0.37-0.17-0.7-0.39-0.92-0.74c-1.34-2.12-2.86-4.13-3.84-6.46   c-0.26-0.62-0.55-1.25-1.05-1.72c-0.75-0.7-1.58-1.32-2.08-2.11c-0.58-0.09-0.94,0.11-1.3,0.26c-0.67,0.27-1.33,0.55-1.98,0.84   c-0.56,0.25-1.1,0.31-1.73,0.14c-1.91-0.52-3.9-0.76-5.79-1.38c-0.5-0.16-1.03-0.28-1.53-0.2c-1.38,0.21-2.68-0.22-4.02-0.32   c-1.1-0.08-2.14-0.18-2.88-1.11c-0.96,0.44-2.59-0.77-3.48-1.06c0.4,0.73,2.06,1.72,2.09,2.51c-0.34,0.36-0.72,0.24-1.07,0.25   c-1.59,0.02-3.19,0.04-4.79,0.05c-0.44,0-0.89,0.05-1.31-0.03c-2.05-0.39-4.09-0.54-6.18-0.25c-2.54,0.36-4.98,0.88-7,2.65   c-0.9,0.79-1.82,1.54-2.53,2.52c-0.3,0.41-0.68,0.79-1.08,1.12c-2.62,2.13-4.7,4.75-6.83,7.34c-2.17,2.64-3.91,5.52-4.91,8.82   c-0.22,0.72-0.48,1.43-0.75,2.14c-0.1,0.28-0.14,0.61-0.49,0.8c-0.75-0.83-0.83-4.15-0.83-4.15s-1.27,3.54-1.03,4.89   c0.43,2.47,0.72,4.96,1.41,7.38c0.06,0.22,0.27,0.47-0.01,0.77c-0.81-1.02-2.24-3.04-2.24-3.04s1.57,3.44,2.12,5.26   c0.17,0.57,0.36,1.11,0.37,1.71c0.05,1.83-0.13,3.66,0.18,5.49c0.12,0.72,0.38,1.24,0.95,1.7c1.99,1.6,3.96,3.22,6.07,4.66   c0.5,0.34,1.01,0.56,1.62,0.7c1.31,0.3,2.62,0.67,3.42,1.94c0.38,0.6,0.9,1.12,1.59,1.41c3.29,1.42,6.48,3.08,9.85,4.33   c2.2,0.82,4.44,1.55,6.53,2.64c0.35,0.18,0.74,0.29,1.12,0.41c0.37,0.12,1.27-0.05,1.27-0.05s-4.04-2.34-5.83-3.84   c0.56-0.42,0.99-0.17,1.38-0.08c2.49,0.58,5,1,7.57,0.84c0.44-0.03,0.88-0.05,1.31-0.01c2.07,0.22,4.14,0.16,6.21,0.09   c1.09-0.04,2.15,0.04,3.2,0.25c1.99,0.4,3.98,0.82,6.01,0.94c1.59,0.09,3.19,0.08,4.78,0.04c0.43-0.01,0.97-0.55,0.97-0.55   s-0.41-0.23-0.61-0.25c-2.03-0.13-4.05-0.31-5.99-0.95c-0.68-0.22-1.38-0.39-2.07-0.57c-1.54-0.39-3.03-0.97-4.66-0.95   c-0.7,0.01-1.4-0.18-2.11-0.28c0.05-0.3,0.24-0.39,0.43-0.43c1.39-0.34,2.79-0.66,4.19-0.98c0.39-0.09,0.79-0.04,1.18,0.06   c3.7,0.91,7.47,1.21,11.27,1.05c1.23-0.05,2.45-0.27,3.64-0.6c0.82-0.23,1.41-0.7,1.78-1.47c0.41-0.87,0.83-1.72,1.27-2.57   c0.37-0.72,0.38-1.44,0.1-2.19c-0.28-0.75-0.51-1.51-0.76-2.27c-0.11-0.34-0.25-0.68-0.01-1.05c0.28-0.36,0.74-0.4,1.15-0.54   c0.57-0.19,1.15-0.33,1.72-0.51c1.8-0.58,3.43-1.49,4.93-2.64c0.38-0.29,1.45-3.27,1.45-3.27s-2.48,2.89-3.35,3.31   c-0.85,0.41-1.7,0.88-2.93,0.86c0.48-0.45,0.79-0.75,1.1-1.05c1.03-0.95,2.01-1.94,2.68-3.19c1.24-2.32,2.37-4.69,3.77-6.93   c0.21-0.34,0.4-0.73,0.26-1.13C89.22,50.36,89.18,48.61,89.11,47.68z M82.95,36.02c1.01,1.12,2.12,2.16,3.06,3.35   c0.57,0.72,1.32,1.25,2.08,1.9c-0.19,0.87-0.71,1.41-1.18,1.98c-1.22-0.73-6.25-7.17-7.04-9.04   C81.06,34.65,82.13,35.12,82.95,36.02z M85.13,45.9c-0.6,1.04-1.12,2.02-1.91,3.04c-0.27-1.18-0.23-2.17-0.01-3.16   c0.21-0.94-0.14-1.98,0.43-3C84.44,43.75,84.65,44.85,85.13,45.9z M69.9,22.43c1.37,1.29,2.73,2.54,3.37,4.39   c0.26,0.74,0.72,1.41,1.08,2.12c0.18,0.34,0.4,0.67,0.38,1.08c-0.69-0.43-1.08-1.14-1.63-1.7c-1.39-1.43-2.73-2.89-4.09-4.34   c-0.23-0.25-0.58-0.44-0.59-0.91C68.83,22.67,69.36,22.55,69.9,22.43z M44.46,67.54c5.09-0.66,10.16-1.32,15.24-2.15   c-0.95,0.88-1.96,1.64-3.04,2.29c-0.16,0.1-0.38,0.16-0.57,0.17c-1.76,0.01-3.08,0.92-4.33,2.01c-0.72,0.63-1.49,0.92-2.5,0.86   c-1.36-0.08-2.67-0.22-3.93-0.75c0.9-0.57,1.94-0.45,2.87-0.36c1.53,0.13,2.71-0.27,3.69-1.46C49.4,68.1,46.89,68.29,44.46,67.54z    M29.37,45.61c-0.45-0.91-0.96-1.81-0.82-2.89l-0.03-0.05l0.05,0.03c0.51,0.11,0.62,0.58,0.82,0.95c0.9,1.69,1.87,3.33,2.89,4.94   c1.18,1.86,2.54,3.55,4.41,4.79c0.26,0.17,0.48,0.41,0.77,0.66c-0.38,0.2-0.68,0.02-0.96-0.04c-0.62-0.12-1.23-0.35-1.86-0.41   c-1.63-0.16-2.96-0.84-4-2.11c-0.3-0.37-0.62-0.74-1-1.02c-1.43-1.08-1.68-2.72-2.06-4.29c-0.02-0.09,0.08-0.21,0.18-0.45   c1.23,1.05,2.06,2.42,3.43,3.28C30.58,47.87,29.94,46.76,29.37,45.61z M34.07,46.78c0.92,0.59,1.5,1.52,2.2,2.31   c0.78,0.88,1.68,1.57,2.66,2.18c1.72,1.08,3.46,2.11,5.28,3.01c0.4,0.2,0.92,0.31,0.98,0.99c-0.48,0.09-0.88-0.07-1.27-0.21   c-1.6-0.6-3.19-1.21-4.78-1.84c-1.25-0.5-2.24-1.36-3.07-2.4c-0.57-0.72-1.09-1.47-1.59-2.24C34.12,48.05,33.95,47.44,34.07,46.78z    M37.33,44.42c-0.39-1.25-0.07-2.34,0.2-3.33c0.73-2.59,2.09-4.77,4.47-6.25c1.08-0.67,2.78-0.33,3.46,0.42   c0.8,0.89,1.59,1.77,1.98,2.98c0.48,1.51,1.06,3,1.44,4.54c0.42,1.73-0.09,3.34-0.82,4.86c-0.39,0.8-1.25,1.14-2.18,1.42   C42.62,48.08,40.07,45.99,37.33,44.42z M40.57,33.47c-1.41,0.39-2.9,0.62-4.12,1.48c-1.53,1.07-3.01,2.22-4.51,3.34   c-0.25,0.18-0.48,0.38-0.73,0.57c0.17-1.01,0.71-1.81,1.37-2.56c0.71-0.8,1.6-1.43,2.23-2.31c0.15-0.2,0.45-0.33,0.71-0.4   c2.14-0.59,4.29-1.16,6.44-1.73c0.15-0.04,0.31-0.04,0.41-0.06c0.28,0.13,0.46,0.27,0.48,0.59C42.26,33.04,41.41,33.24,40.57,33.47   z M32.14,54.78c4.44,1.45,9.01,2.36,13.64,2.84c2.35,0.24,4.64,0.65,6.95,1.08c0.42,0.08,0.84,0.2,1.23,0.29   c0.04,0.41-0.21,0.47-0.44,0.5c-0.52,0.07-1.03,0.03-1.54-0.06c-1.13-0.21-2.27-0.42-3.41-0.59c-1.39-0.2-2.75,0.18-4.28,0.27   c0.59,0.51,1.19,0.72,1.72,1.04c0.52,0.31,1.25,0.25,1.66,0.89c-0.52,0.24-0.96,0.16-1.43,0.01c-1.26-0.39-2.51-0.84-3.6-1.57   c-1.47-0.98-3.08-1.49-4.81-1.63c-2.52-0.21-4.64-1.32-6.64-2.75c-0.09-0.06-0.15-0.17-0.28-0.33   C31.4,54.48,31.77,54.66,32.14,54.78z M61,58.69c0.92-0.36,1.87-0.68,2.81-0.99c0.25-0.08,0.51-0.26,0.84,0   c0.17,0.47-0.19,0.77-0.48,1.07c-0.45,0.46-1,0.8-1.59,1.05c-4.16,1.72-8.38,3.25-12.86,3.92c-0.49,0.07-1,0.17-1.61-0.09   c0.69-0.49,1.41-0.6,2.06-0.83c0.65-0.23,1.27-0.47,1.73-1c0.39-0.44,0.93-0.58,1.47-0.74C55.92,60.28,58.52,59.67,61,58.69z    M43.03,64.67c0.55,0,1.09,0.06,1.64,0.09c-2.79,0.6-5.59,0.81-8.42,0.75c-1.01-0.02-1.97-0.19-2.89-0.62   c-1.03-0.48-2.08-0.93-3.15-1.4c0.24-0.39,0.55-0.31,0.78-0.24c0.82,0.24,1.65,0.2,2.49,0.19c1.36-0.02,2.69,0.23,4.01,0.53   C39.32,64.36,41.15,64.67,43.03,64.67z M58,63.59c0.12-0.53,0.46-0.57,0.74-0.69c2.88-1.24,5.66-2.73,8.66-3.72   c1.17-0.39,2.25-1,3.28-1.7c1.19-0.81,2.58-0.87,3.93-1.17c0.11,0.52-0.15,0.76-0.42,0.88c-2.33,1.04-4.31,2.72-6.69,3.67   c-2.11,0.84-4.26,1.55-6.43,2.21C60.08,63.38,59.08,63.55,58,63.59z M59.59,55.33c-0.63,0.28-1.27,0.31-1.98,0.25   c-2.1-0.19-4.17-0.57-6.29-0.63c-1.55-0.04-3.05-0.32-4.47-1.09c-2.2-1.2-4.49-2.24-6.51-3.75c-0.68-0.51-1.23-1.1-1.35-2.11   c0.6,0.03,0.97,0.31,1.32,0.54c2.22,1.5,4.7,2.52,7.13,3.61c1.23,0.55,2.64,0.57,3.97,0.72c2.61,0.3,5.24,0.41,7.87,0.12   c3.36-0.38,6.37-1.62,9.09-3.59c1.53-1.11,2.82-2.46,4-3.92c0.57-0.71,1.18-1.37,2.26-1.83c-0.56,1.83-0.85,3.55-2.45,4.63   C68.18,50.98,64.01,53.38,59.59,55.33z M74.55,39.58c-1.2,0.83-2.15,2.05-3.47,2.89c0.44-1.26,0.45-2.68,1.6-3.61   c0.41-0.34,0.52-0.87,0.54-1.52c-0.99-1.33-2.08-2.7-2.57-4.4c-0.02-0.02-0.06-0.05-0.05-0.06c0.01-0.07,0.06-0.06,0.1,0.02   c1.81,0.93,2.96,2.47,3.97,4.22C74.64,37.86,74.6,38.65,74.55,39.58z M66.47,24.52c1.41,0.63,2.28,1.82,3.02,3.13l0.04,0.05   l-0.05-0.05c-0.12,0-0.26,0.05-0.35,0c-1.27-0.71-2.54-1.42-3.91-2.05C65.47,24.98,65.96,24.81,66.47,24.52z M66.87,45.26   c-0.49,1-1.12,1.66-1.93,2.2c-1.22,0.82-2.49,1.53-3.84,2.12c-2.39,1.04-4.85,1.08-7.34,0.49c-0.87-0.21-1.81-0.09-2.65-0.6   c-0.05-0.14-0.16-0.31-0.14-0.46c0.25-2.08,0.67-4.06,2.43-5.49c2.03-1.65,4.3-2.2,6.87-1.83c1.54,0.22,3.05,0.55,4.5,1.11   C65.94,43.25,66.54,44.19,66.87,45.26z M60.8,22.83c1.05,0.05,2.13,0.23,3.17,0.84c-0.32,0.55-0.8,0.67-1.26,0.93   c-1.7-0.45-3.29-1.23-5.04-1.62C58.71,22.14,59.78,22.78,60.8,22.83z M59.69,25.36c0.47,0.27,1.04,0.37,1.57,0.54   c1.24,0.41,2.5,0.76,3.51,1.66c0.05,0.05,0.1,0.09,0.15,0.14c-0.1,0.11-0.19,0.02-0.28,0c-0.88,0.01-1.73-0.16-2.56-0.45   c-1.13-0.39-2.29-0.63-3.48-0.76c-1.35-0.15-2.45-0.59-3.56-1.44C56.68,24.75,58.2,24.51,59.69,25.36z M60.92,32.51   c1.13,0.71,2.18,1.55,2.99,2.62c1.14,1.51,0.73,3.68-0.81,4.48c-0.44,0.23-0.88,0.3-1.37,0.26c-1.03-0.08-2.07-0.15-3.1-0.14   c-1.84,0.01-3.51,0.78-5.24,1.29c-0.33,0.1-0.65,0.23-0.93,0.33c-3.93-1.27-5.24-6.06-2.45-8.97c0.81-0.85,1.89-1.38,3.08-1.51   C55.87,30.58,58.52,31.01,60.92,32.51z M49.23,22.94c0.86,0.23,1.72,0.33,2.6,0.33c0.59,0,1.19,0.02,1.76,0.4   c-0.38,0.56-0.96,0.66-1.48,0.67c-2.07,0.04-4.13,0.02-6.28,0.02C46.72,23.18,48.05,22.62,49.23,22.94z M47.57,26.84   c1.51-0.02,3.02-0.15,4.53-0.21c0.44-0.02,0.98-0.13,1.13,0.74c-2.45,0.39-4.81,0.63-7.13,1.06c-2.34,0.44-4.62,1.1-7.05,1.62   c0.07-0.59,0.46-0.8,0.82-0.99C42.26,27.72,44.79,26.89,47.57,26.84z M28.55,26.74c0.9-0.91,1.79-1.82,2.71-2.69   c0.88-0.83,1.98-1.17,3.16-1.23c1.63-0.09,3.26-0.06,4.89,0.14c0.86,0.11,1.72,0.13,2.6,0.29c-1.02,0.67-2.15,0.94-3.31,1.09   c-1.87,0.23-3.65,0.77-5.45,1.29c-1.84,0.52-3.47,1.33-4.85,2.65c-0.08,0.08-0.2,0.11-0.36,0.04   C27.87,27.69,28.12,27.18,28.55,26.74z M27.05,30.76c0.1-0.33,0.4-0.47,0.67-0.65c1.03-0.7,2.2-1.09,3.42-1.43   c-0.31,0.63-0.92,0.97-1.43,1.4c-0.57,0.49-1.13,1.01-1.73,1.47c-0.56,0.43-0.74,1.22-1.62,1.59   C26.62,32.25,26.83,31.5,27.05,30.76z M26.58,36.18c0.64-1.06,1.39-2.04,2.21-2.96c1.14-1.28,2.33-2.51,3.49-3.78   c1.9-2.09,4.28-3.27,7.01-3.81c1.02-0.2,2.03-0.4,3.05-0.6c0.19-0.04,0.39-0.1,0.59,0.15c-0.49,0.43-1.09,0.63-1.67,0.88   c-2.41,1.06-4.76,2.24-7.08,3.47c-0.54,0.29-0.96,0.68-1.35,1.14c-1.27,1.48-2.48,3.01-3.63,4.58c-0.26,0.35-0.55,0.71-0.96,0.88   c-0.51,0.2-0.86,0.54-1.16,0.98c-0.18,0.26-0.4,0.52-0.87,0.3C26.04,36.89,26.37,36.54,26.58,36.18z M26.13,53.25   c0.06,0.04,0.07,0.14,0.1,0.21c-1.09,0.17-1.99-0.24-2.48-1.2c-0.56-1.09-1.01-2.24-1.39-3.41c-0.39-1.2-0.73-2.42-1.1-3.67   c-0.45,0.72-0.64,1.49-0.48,2.29c0.26,1.27,0.24,2.6,0.97,3.76c0.28,0.44,0.36,1.02,0.35,1.72c-1.04-0.5-1.65-1.31-2.42-2.01   c-0.16-2.03-0.11-4.06,0.03-6.07c0.05-0.71,0.43-1.43,0.98-2c0.98-0.99,1.92-2,3.07-2.8l0.08-0.06l-0.06,0.07   c0.03,0.63-0.4,1.11-0.6,1.65c-0.15,0.41-0.32,0.81-0.48,1.24c0.63,2.18,0.83,4.44,1.37,6.64C24.42,51.04,24.85,52.38,26.13,53.25z    M18.63,41.89c0.98-1.67,2-3.33,2.94-5.02c0.49-0.89,1.13-1.49,2.14-1.71c0.54-0.12,1.06-0.32,1.54-0.47   c0.32,0.24,0.21,0.46,0.1,0.68c-0.31,0.61-0.68,1.17-1.16,1.65c-2.15,2.13-3.84,4.64-5.75,6.98c-0.12,0.15-0.18,0.36-0.4,0.41   l-0.05,0.04l0.04-0.05C17.94,43.48,18.17,42.66,18.63,41.89z M17.12,38.64c0.16-0.4,0.41-0.77,0.66-1.13   c1.67-2.38,3.47-4.66,5.34-6.89c0.71-0.84,1.67-1.32,2.68-1.79c-2.62,4.1-6.22,7.42-8.85,11.67C16.62,39.72,16.9,39.17,17.12,38.64   z M18.98,67.94c-1.54-1.38-3.06-2.78-4.58-4.18c-0.17-0.16-0.33-0.37-0.39-0.59c-0.39-1.38-0.44-2.77-0.22-4.26   c0.19,0.11,0.34,0.14,0.38,0.22c1.85,3.22,3.98,6.26,6.43,9.21C19.87,68.57,19.39,68.31,18.98,67.94z M19.13,61.9   c-1.32-1.84-2.61-3.71-3.87-5.59c-0.26-0.38-0.42-0.87-0.51-1.33c-0.25-1.32-0.62-2.63-0.72-3.98c-0.03-0.44,0.01-0.85,0.32-1.31   c0.61,0.89,1.07,1.75,1.35,2.71c0.32,1.11,0.6,2.23,0.98,3.31c0.56,1.6,1.52,2.97,2.73,4.14c1.03,0.99,1.55,2.26,2.17,3.51   C20.57,63.16,19.72,62.71,19.13,61.9z M21.44,58.68c-0.52-0.93-1.22-1.76-1.5-2.97c0.73,0.02,1,0.43,1.24,0.82   c1.11,1.87,2.84,2.5,4.89,2.65c1.3,0.1,2.63,0.21,3.86,0.71c0.57,0.23,1.13,0.28,1.74,0.06c0.81-0.29,1.67-0.15,2.48-0.01   c2,0.33,3.98,0.74,6.14,1.01c-0.9,0.68-1.87,0.66-2.76,0.7c-1.91,0.09-3.82-0.02-5.73-0.16c-0.79-0.06-1.58-0.12-2.38,0.08   c-0.41,0.11-0.88,0.1-1.31,0.06c-1.71-0.19-3.35-0.69-4.93-1.38C22.45,59.92,21.84,59.4,21.44,58.68z M25.06,65.09   c-0.61-0.55-1.17-1.18-1.05-2.09c0.35-0.24,0.59-0.05,0.82,0.07c1.03,0.59,2.14,1.04,3.05,1.85c0.74,0.65,1.74,0.75,2.68,0.89   c0.48,0.07,0.95,0.15,1.38,0.34c2.69,1.2,5.37,2.42,8.05,3.65c0.27,0.12,0.62,0.18,0.73,0.61c-0.99,0.06-1.91-0.17-2.81-0.45   c-1.33-0.42-2.65-0.86-3.99-1.25c-1.15-0.33-2.32-0.56-3.52-0.62c-0.41-0.02-0.8-0.08-1.15-0.28   C27.78,67.02,26.31,66.21,25.06,65.09z M41.98,75.64c-1.5-0.38-3.04-0.63-4.57-0.89c-2.73-0.46-5.31-1.37-7.7-2.79   c-0.81-0.48-1.79-0.7-2.42-1.64c0.96-0.36,1.84-0.4,2.74,0.03c1.04,0.5,2.09,0.98,3.13,1.48c2.27,1.09,4.7,1.75,7.04,2.64   c0.91,0.35,1.86,0.64,2.67,1.23C42.58,75.73,42.28,75.72,41.98,75.64z M42.97,75.74C42.97,75.74,42.97,75.74,42.97,75.74   C42.99,75.75,43.01,75.75,42.97,75.74z M51.49,75.49c-3,0.49-10.12-2.14-12.09-3.82c1.49-0.06,2.93,0.15,4.35,0.53   c1.23,0.33,2.5,0.44,3.68,0.96c0.31,0.13,0.71,0.08,1.06,0.08c2.19,0,4.38,0,6.57,0c0.34,0,0.7-0.1,1.11,0.22   C54.63,74.36,52.81,74.4,51.49,75.49z M63.42,70.25c-1.73,0.62-3.51,1.05-5.32,1.32c-0.2,0.03-0.41,0.08-0.59,0.02   c-1.33-0.38-2.69-0.64-3.97-1.35c1.04-0.1,2.08-0.21,3.13-0.3c0.6-0.05,1.2-0.09,1.79-0.06c2.97,0.17,5.52-1.01,7.99-2.43   c1.55-0.9,3.04-1.89,4.56-2.85c0.23-0.14,0.42-0.37,0.75-0.29c0.22,0.29-0.04,0.52-0.13,0.76c-0.83,2.35-2.64,3.88-4.38,5.55   c-1.65,1.58-3.66,1.68-5.73,2.27c0.08-0.69,0.43-0.97,0.85-1.03c1.46-0.23,2.5-1.17,3.58-2.04c0.7-0.57,1.39-1.15,2.08-1.73   C66.49,68.83,65.02,69.68,63.42,70.25z M76.69,72.16c-0.56,0.72-0.97,1.55-1.44,2.34c-0.31,0.53-0.76,0.77-1.37,0.78   c-2.91,0.06-5.81,0.06-8.68-0.51c-0.19-0.04-0.39-0.07-0.55-0.41c3.35-0.87,6.85-0.76,10.04-2.09c0.21-0.09,0.54-0.46,0.54-0.46   s-3.15,0.65-4.93,0.57c0.6-0.83,1.45-1.01,2.08-1.5c0.69-0.53,1.42-1.03,2.15-1.51c0.69-0.45,1.18-1.17,2.1-1.47   C77.2,69.35,77.83,70.7,76.69,72.16z M80.58,53.54c-0.23,1.26-0.63,2.44-1.31,3.54c-1.2,1.96-2.35,3.96-3.51,5.95   c-0.54,0.93-1.2,1.78-1.96,2.54c-0.16,0.16-0.29,0.39-0.61,0.34c-0.17-0.37,0.05-0.68,0.2-0.98c0.66-1.27,1.31-2.54,2.02-3.78   c1-1.76,2.09-3.47,3.03-5.26c0.5-0.95,1.07-1.86,1.99-2.48C80.6,53.33,80.64,53.39,80.58,53.54z M80.17,47.96   c-0.46,0.88-1.08,1.67-1.74,2.42c-0.16,0.18-0.35,0.34-0.48,0.53c-1.48,2.22-3.81,3.16-6.14,4.1c-0.75,0.3-1.5,0.66-2.41,0.62   c1.55-1.34,3.11-2.67,4.74-4.08c-0.39-0.18-0.62,0.02-0.84,0.1c-1.13,0.38-2.25,0.8-3.38,1.18c-0.35,0.11-0.76,0.36-1.14-0.14   c0.06-0.42,0.44-0.57,0.78-0.74c2-0.98,4-1.96,6.14-2.61c0.81-0.24,1.42-0.64,1.89-1.34c0.47-0.69,0.98-1.36,1.32-2.13   c0.36-0.79,0.96-1.34,1.78-1.98C81.04,45.44,80.81,46.74,80.17,47.96z M77.46,38.27c1.07,2.14,1.14,4.35-0.6,5.66   C76.15,42.34,76.33,39.69,77.46,38.27z M80.41,41.4c-0.1-0.08-0.15-0.1-0.15-0.13c-0.1-1.43-0.88-2.53-1.75-3.57   c-1.4-1.67-2.77-3.38-4.64-4.6c-0.47-0.3-0.86-0.7-1.2-1.18c0.89-0.03,2.12,0.46,2.98,1.12c1.82,1.39,3.2,3.2,4.69,4.9   c0.63,0.71,1.34,1.36,1.84,2.24C81.87,41.19,81.01,41.1,80.41,41.4z M81.87,60.43c0.06-2.14,1.03-3.81,1.5-5.61   c0.48-1.84,1.94-3.17,2.65-5.12c0.84,1.3,0.54,2.58,0.72,3.85C85.37,55.88,84.36,58.52,81.87,60.43z"/><path d="M62.23,35.86c-0.06-1.04-0.08-1.06-1.19-0.86c-0.21,0.26-0.17,0.54-0.03,0.93C61.39,36.03,61.81,36.23,62.23,35.86z"/><path d="M58.54,33.9c0.25-0.36,0.24-0.67-0.05-0.96c-0.42-0.13-0.84-0.22-1.16,0.29C57.48,33.9,57.93,34.04,58.54,33.9z"/><path d="M61.6,38c0.39,0.13,0.79,0.24,1.18-0.14c-0.04-0.71-0.63-0.68-1.14-0.87C61.33,37.39,61.3,37.69,61.6,38z"/><path d="M40.02,39.67c-0.23,0.34-0.2,0.64,0.11,0.91c0.33,0.13,0.65,0.19,0.97-0.07c0.23-0.3,0.28-0.6,0-0.91   C40.73,39.44,40.37,39.42,40.02,39.67z"/><path d="M41.53,37.28c0.39,0.34,0.7,0.39,1.01,0.12c0.09-0.31,0.09-0.6-0.13-0.89C41.8,36.37,41.57,36.67,41.53,37.28z"/><path d="M45.25,39.03c-0.42-0.02-0.62,0.19-0.6,0.72c0.62,0.18,0.62,0.18,1.19,0.02C45.95,39.28,45.72,39.05,45.25,39.03z"/><path d="M63.31,44.89c-0.21,0.95-0.2,0.96,1.19,0.98C64.45,44.98,63.95,44.86,63.31,44.89z"/><path d="M60.76,43.69c0.15,0.48,0.46,0.62,0.89,0.57c0.23-0.26,0.61-0.46,0.43-1C61.61,43.17,61.13,43.02,60.76,43.69z"/><path d="M68.09,68.02l-0.04,0.04c-0.01,0.01-0.02,0.02-0.03,0.03c0.01-0.01,0.02-0.01,0.04-0.02L68.09,68.02z"/></g></svg>